<?xml version="1.0" encoding="utf-8"?>
<!-- Generator: Adobe Illustrator 22.0.1, SVG Export Plug-In . SVG Version: 6.00 Build 0)  -->
<svg version="1.1" id="图层_1" xmlns="http://www.w3.org/2000/svg" xmlns:xlink="http://www.w3.org/1999/xlink" x="0px" y="0px"
	 viewBox="0 0 24 24" style="enable-background:new 0 0 24 24;" xml:space="preserve">
<style type="text/css">
	.st0{fill:url(#SVGID_1_);}
	.st1{fill:#6597FF;}
</style>
<path class="st1" d="M12,3c-5,0-9,4-9,9s4,9,9,9c5,0,9-4,9-9S17,3,12,3z M12,5.7c1.5,0,2.7,1.2,2.7,2.7c0,1.5-1.2,2.7-2.7,2.7
	c-1.5,0-2.7-1.2-2.7-2.7C9.3,6.9,10.5,5.7,12,5.7z M12,18.5c-2.2,0-4.2-1.2-5.4-2.9c0-1.8,3.6-2.8,5.4-2.8c1.8,0,5.4,1,5.4,2.8
	C16.2,17.3,14.3,18.5,12,18.5z"/>
</svg>
