<?xml version="1.0" encoding="utf-8"?>
<!-- Generator: Adobe Illustrator 22.0.1, SVG Export Plug-In . SVG Version: 6.00 Build 0)  -->
<svg version="1.1" id="图层_1" xmlns="http://www.w3.org/2000/svg" xmlns:xlink="http://www.w3.org/1999/xlink" x="0px" y="0px"
	 viewBox="0 0 160 30" style="enable-background:new 0 0 160 30;" xml:space="preserve">
<style type="text/css">
	.st0{fill:url(#SVGID_1_);}
	.st1{fill:#6597FF;}
</style>
<linearGradient id="SVGID_1_" gradientUnits="userSpaceOnUse" x1="1.1039" y1="15" x2="158.8961" y2="15">
	<stop  offset="0" style="stop-color:#4469AA"/>
	<stop  offset="1" style="stop-color:#614678"/>
</linearGradient>
<path class="st0" d="M13.5,7.4c-0.6-0.5-1.2-0.8-1.8-1.1S10.5,6,10,6C9.3,6,8.7,6.2,8.3,6.5C7.8,6.9,7.6,7.3,7.6,7.8
	c0,0.4,0.1,0.7,0.4,0.9C8.2,9,8.5,9.2,8.8,9.4C9.2,9.5,9.6,9.7,10,9.8c0.5,0.1,0.9,0.3,1.3,0.4c1.8,0.6,3.1,1.4,3.9,2.4
	c0.8,1,1.2,2.3,1.2,3.9c0,1.1-0.2,2-0.5,2.9c-0.4,0.9-0.9,1.6-1.6,2.2c-0.7,0.6-1.5,1.1-2.5,1.4s-2.1,0.5-3.4,0.5
	c-2.6,0-5.1-0.8-7.3-2.3l2.3-4.4c0.8,0.7,1.6,1.2,2.4,1.6c0.8,0.4,1.6,0.5,2.3,0.5c0.9,0,1.6-0.2,2-0.6c0.4-0.4,0.7-0.9,0.7-1.4
	c0-0.3,0-0.6-0.2-0.8c-0.1-0.2-0.3-0.4-0.5-0.6c-0.3-0.2-0.6-0.4-1-0.5s-0.9-0.4-1.5-0.5c-0.7-0.2-1.4-0.5-2.1-0.7s-1.3-0.6-1.8-1.1
	c-0.5-0.4-0.9-1-1.3-1.7C2.2,10.3,2,9.4,2,8.4s0.2-1.9,0.5-2.8C2.9,4.8,3.3,4,3.9,3.4S5.3,2.4,6.2,2s1.9-0.5,3-0.5
	c1,0,2.1,0.2,3.2,0.4s2.2,0.7,3.2,1.2L13.5,7.4z M22.5,16.7c0,2.1,1,3.2,3,3.2c1.1,0,1.9-0.4,2.5-1.3h4.8c-1,3.2-3.4,4.9-7.3,4.9
	c-1.2,0-2.3-0.2-3.3-0.5c-1-0.4-1.8-0.9-2.6-1.5c-0.7-0.7-1.2-1.4-1.6-2.4c-0.4-0.9-0.6-1.9-0.6-3.1c0-1.2,0.2-2.3,0.5-3.2
	c0.4-0.9,0.9-1.8,1.6-2.4s1.5-1.2,2.5-1.5c1-0.4,2.1-0.5,3.3-0.5c1.2,0,2.3,0.2,3.2,0.5c1,0.4,1.8,0.9,2.4,1.6s1.2,1.5,1.5,2.5
	s0.5,2.1,0.5,3.3v0.5C32.9,16.7,22.5,16.7,22.5,16.7z M28.4,13.8c-0.2-0.7-0.5-1.2-1-1.7c-0.5-0.4-1.1-0.6-1.9-0.6
	c-0.8,0-1.4,0.2-1.9,0.6c-0.5,0.4-0.8,1-0.9,1.7L28.4,13.8L28.4,13.8z M34.5,8.8h5v1.8c0.7-0.8,1.4-1.4,2.1-1.7
	c0.7-0.3,1.5-0.4,2.5-0.4c1,0,1.8,0.2,2.6,0.5c0.7,0.3,1.3,0.8,1.8,1.4c0.4,0.5,0.7,1,0.8,1.6s0.2,1.2,0.2,2v9h-5v-7.2
	c0-0.7,0-1.2-0.2-1.7c-0.1-0.4-0.3-0.8-0.5-1.1c-0.2-0.2-0.5-0.4-0.7-0.5c-0.3-0.1-0.6-0.2-0.9-0.2c-0.9,0-1.5,0.3-1.9,0.7
	c-0.5,0.5-0.7,1.2-0.7,2.2v7.6h-5L34.5,8.8L34.5,8.8z M60.8,12.4c-0.9-0.5-1.8-0.7-2.7-0.7c-0.5,0-0.8,0.1-1.1,0.3
	c-0.3,0.2-0.4,0.4-0.4,0.7c0,0.2,0,0.3,0.1,0.4c0,0.1,0.2,0.2,0.3,0.3c0.2,0.1,0.4,0.2,0.7,0.2c0.3,0.1,0.7,0.2,1.2,0.3
	c1.4,0.3,2.4,0.8,3.1,1.5c0.7,0.7,1,1.6,1,2.7c0,0.8-0.2,1.6-0.5,2.2s-0.8,1.2-1.4,1.7c-0.6,0.5-1.3,0.8-2.1,1.1
	c-0.8,0.2-1.8,0.4-2.7,0.4c-1.9,0-3.8-0.5-5.6-1.6l1.8-3.5c1.4,1,2.7,1.4,4,1.4c0.5,0,0.9-0.1,1.1-0.3c0.3-0.2,0.4-0.5,0.4-0.8
	c0-0.2,0-0.4-0.1-0.5c0-0.1-0.2-0.2-0.3-0.4c-0.2-0.1-0.4-0.2-0.7-0.3c-0.3-0.1-0.7-0.2-1.1-0.3c-1.6-0.3-2.6-0.8-3.2-1.4
	c-0.6-0.6-0.9-1.5-0.9-2.6c0-0.8,0.2-1.5,0.4-2.1c0.3-0.6,0.7-1.2,1.3-1.6c0.5-0.4,1.2-0.8,2-1s1.6-0.4,2.6-0.4
	c1.6,0,3.1,0.3,4.6,0.9L60.8,12.4z M68.6,16.7c0,2.1,1,3.2,3,3.2c1.1,0,1.9-0.4,2.5-1.3h4.8c-1,3.2-3.4,4.9-7.3,4.9
	c-1.2,0-2.3-0.2-3.3-0.5c-1-0.4-1.8-0.9-2.6-1.5c-0.7-0.7-1.2-1.4-1.6-2.4c-0.4-0.9-0.6-1.9-0.6-3.1c0-1.2,0.2-2.3,0.5-3.2
	c0.4-0.9,0.9-1.8,1.6-2.4c0.7-0.7,1.5-1.2,2.5-1.5c1-0.4,2.1-0.5,3.3-0.5s2.3,0.2,3.2,0.5c1,0.4,1.8,0.9,2.4,1.6
	c0.7,0.7,1.2,1.5,1.5,2.5s0.5,2.1,0.5,3.3v0.5C79.1,16.7,68.6,16.7,68.6,16.7z M74.5,13.8c-0.2-0.7-0.5-1.2-1-1.7
	c-0.5-0.4-1.1-0.6-1.9-0.6c-0.8,0-1.4,0.2-1.9,0.6c-0.5,0.4-0.8,1-0.9,1.7L74.5,13.8L74.5,13.8z M92.5,7.4C92,7,91.4,6.6,90.8,6.4
	C90.2,6.2,89.6,6,89.1,6c-0.7,0-1.3,0.2-1.7,0.5s-0.7,0.8-0.7,1.3c0,0.4,0.1,0.7,0.4,0.9c0.2,0.2,0.5,0.4,0.9,0.6
	c0.4,0.2,0.8,0.3,1.2,0.5c0.5,0.1,0.9,0.3,1.3,0.4c1.8,0.6,3.1,1.4,3.9,2.4c0.8,1,1.2,2.3,1.2,3.9c0,1.1-0.2,2-0.5,2.9
	c-0.4,0.9-0.9,1.6-1.6,2.2c-0.7,0.6-1.5,1.1-2.5,1.4c-1,0.4-2.1,0.5-3.4,0.5c-2.6,0-5.1-0.8-7.3-2.3l2.3-4.4
	c0.8,0.7,1.6,1.2,2.4,1.6c0.8,0.4,1.6,0.5,2.3,0.5c0.9,0,1.6-0.2,2-0.6c0.4-0.4,0.7-0.9,0.7-1.4c0-0.3,0-0.6-0.2-0.8
	c-0.1-0.2-0.3-0.4-0.5-0.6c-0.3-0.2-0.6-0.4-1-0.5s-0.9-0.4-1.5-0.5c-0.7-0.2-1.4-0.5-2.1-0.7c-0.7-0.3-1.3-0.6-1.8-1.1
	c-0.5-0.4-0.9-1-1.3-1.7c-0.3-0.7-0.5-1.5-0.5-2.6s0.2-1.9,0.5-2.8C81.9,4.8,82.4,4,83,3.4c0.6-0.6,1.4-1.1,2.3-1.4
	c0.9-0.4,1.9-0.5,3-0.5c1,0,2.1,0.2,3.2,0.4s2.2,0.7,3.2,1.2L92.5,7.4z M102.9,12.9v10h-5v-10h-1.7V8.8H98V4.5h5v4.2h2.8v4.2H102.9z
	 M111.3,8.8v8c0,1.8,0.9,2.6,2.5,2.6c1.7,0,2.5-0.9,2.5-2.6v-8h5v9c0,1.9-0.6,3.4-1.9,4.3c-1.2,1-3.2,1.4-5.6,1.4s-4.4-0.5-5.6-1.4
	s-1.9-2.4-1.9-4.3v-9C106.2,8.8,111.3,8.8,111.3,8.8z M134.3,0h5v22.9h-5v-1.6c-1.1,1.4-2.5,2-4.3,2c-1,0-2-0.2-2.8-0.6
	c-0.9-0.4-1.6-0.9-2.3-1.6s-1.1-1.5-1.5-2.4c-0.4-0.9-0.5-1.9-0.5-3c0-1,0.2-2,0.5-2.9c0.4-0.9,0.8-1.7,1.4-2.4
	c0.6-0.7,1.4-1.2,2.3-1.6c0.9-0.4,1.8-0.6,2.9-0.6c1.8,0,3.2,0.6,4.4,1.9V0z M128,15.8c0,0.5,0.1,0.9,0.2,1.3
	c0.2,0.4,0.4,0.7,0.7,1.1c0.3,0.3,0.6,0.5,1,0.7c0.4,0.2,0.8,0.2,1.3,0.2c0.4,0,0.9-0.1,1.2-0.2c0.4-0.2,0.7-0.4,1-0.7
	c0.3-0.3,0.5-0.6,0.7-1c0.2-0.4,0.3-0.8,0.3-1.2s-0.1-0.9-0.3-1.2c-0.2-0.4-0.4-0.7-0.7-1.1c-0.3-0.3-0.6-0.5-1-0.7
	c-0.4-0.2-0.8-0.2-1.2-0.2c-0.4,0-0.9,0.1-1.2,0.2c-0.4,0.2-0.7,0.4-1,0.7c-0.3,0.3-0.5,0.6-0.7,1C128.1,15,128,15.4,128,15.8z
	 M146.8,21l-6.9-12.2h5.8l3.8,7.2l3.7-7.2h5.7L147.5,30h-5.6L146.8,21z"/>
</svg>
